PathFileType	4	(X/Y/Z)	C:\Users\chris\Documents\GitHub\baseballds\vids\pitch7_Sports2D\pitch7_Sports2D_px_person00.trc
DataRate	CameraRate	NumFrames	NumMarkers	Units	OrigDataRate	OrigDataStartFrame	OrigNumFrames
30	30	11	22	m	30	59	236
Frame#	Time	Hip			RHip			RKnee			RAnkle			RBigToe			RSmallToe			RHeel			LHip			LKnee			LAnkle			LBigToe			LSmallToe			LHeel			Neck			Head			Nose			RShoulder			RElbow			RWrist			LShoulder			LElbow			LWrist		
		X1	Y1	Z1	X2	Y2	Z2	X3	Y3	Z3	X4	Y4	Z4	X5	Y5	Z5	X6	Y6	Z6	X7	Y7	Z7	X8	Y8	Z8	X9	Y9	Z9	X10	Y10	Z10	X11	Y11	Z11	X12	Y12	Z12	X13	Y13	Z13	X14	Y14	Z14	X15	Y15	Z15	X16	Y16	Z16	X17	Y17	Z17	X18	Y18	Z18	X19	Y19	Z19	X20	Y20	Z20	X21	Y21	Z21	X22	Y22	Z22
59	1.9666666666666666	719.9272163804555	492.50476031711514	0.0	672.5117137342432	501.0350639343089	0.0	658.5412877415288	689.7733000150672	0.0	630.4203565040402	857.5888269423772	0.0	632.6360214713437	924.4505870637199	0.0	604.0310775404483	919.3560156576855	0.0	634.7810036458125	878.5929315937016	0.0	771.6122547508351	504.3395313046499	0.0	790.2171615146535	692.6413907574525	0.0	809.6944653652247	850.7558226670953	0.0	777.3965326799137	907.9673839453193	0.0	810.9608017864102	906.2194452500577	0.0	814.4600302959706	869.4787713845669	0.0	714.1422150869304	228.88171561884576	0.0	729.9175797021077	108.90493961035384	0.0	779.0753752448044	164.54277200752534	0.0	626.3404739522557	282.5310754976296	0.0	609.2886582490067	420.7995725673262	0.0	609.7300087610085	543.4497765368476	0.0	800.264948819874	271.13667144648093	0.0	841.4961886298825	388.3087748531119	0.0	888.2151901562208	491.5118068106732	0.0
60	2.0	722.6211016181794	493.5546903870945	0.0	674.7321501664215	502.8445317659536	0.0	660.0558845865593	691.073831106315	0.0	632.0796345087027	857.8330413807203	0.0	635.0993330814896	924.4098212640423	0.0	606.3014868877444	919.3278655324207	0.0	636.9734913795394	879.3194345031441	0.0	773.7820291900498	505.61213782558	0.0	792.3484697648084	693.6678663676131	0.0	811.7209562751452	849.4228000771394	0.0	779.7669339238507	908.9284700062934	0.0	813.721005156821	907.971111431031	0.0	817.2405371890493	867.8072620304297	0.0	716.4318773849068	229.60591392569424	0.0	732.9530850024868	109.60223030518924	0.0	781.4789271882951	165.5303939719708	0.0	628.4601793862669	283.53347059850273	0.0	611.8572375190274	421.2414379384805	0.0	612.5588832194557	543.9985221388846	0.0	802.4711565081043	271.79877458749854	0.0	843.9985417285855	389.2980110956032	0.0	890.1794254685988	493.03377199926496	0.0
61	2.033333333333333	724.9627140901764	493.111063180296	0.0	676.6064006204622	502.0800135775333	0.0	662.0977159488527	690.7308672660818	0.0	634.0144818659608	857.7733552301437	0.0	637.8572538506058	923.867618385782	0.0	608.4303014585302	918.8259013589277	0.0	638.3217819763845	880.4220315486316	0.0	775.8745220868889	504.52898756522416	0.0	794.3044987427024	693.8343319751008	0.0	813.8275155283377	849.4320948134548	0.0	782.5864595222815	908.7887323171947	0.0	817.098916743284	908.035761090337	0.0	819.3396875176817	868.8175875819771	0.0	719.0969570311602	230.7612813733829	0.0	735.6945753055529	110.12209818905266	0.0	783.2554952857153	166.74470958251516	0.0	630.7289012425766	285.09747381928713	0.0	614.676169262855	422.1653300905523	0.0	615.4500074116712	545.2454190888766	0.0	804.9448589660119	272.9597168241474	0.0	846.379019091845	389.82596452395114	0.0	892.3088516400865	494.4836552749408	0.0
62	2.0666666666666664	726.9599840778126	493.03361394054934	0.0	678.4608432463488	500.9596832948687	0.0	664.3877386982684	690.8792468525575	0.0	636.4198705611512	858.4278264319892	0.0	640.2054952137719	924.0586392150494	0.0	610.4555302274283	919.0651833626421	0.0	639.7958289764701	881.4263700822764	0.0	777.8369921276349	503.37959755569784	0.0	796.4653869615438	693.9634427749463	0.0	816.0527733749664	851.8030370083337	0.0	785.6081685147435	908.7929720727002	0.0	820.3484234046286	907.9194285825995	0.0	820.4019061591792	872.4646751761373	0.0	721.916631982694	231.9366275506266	0.0	737.8074510003605	111.32315605300101	0.0	784.8426945788565	168.00988965397818	0.0	633.1116497856215	286.1817604093589	0.0	617.419947604263	423.50129219725727	0.0	617.4194708299503	546.6838711674997	0.0	807.624491321759	274.11984270313366	0.0	848.5885465587708	390.71181442450376	0.0	894.3868245733906	495.3691106091413	0.0
63	2.1	728.9469566236453	494.87911168508083	0.0	680.4984399527826	502.3131660837607	0.0	665.9784544041497	693.5490175712612	0.0	639.2625235166515	860.1382759391565	0.0	641.8180690314261	925.8210811998492	0.0	612.2342229473411	920.8535394152918	0.0	642.5931883019816	882.0557688275884	0.0	779.8743147001603	504.809140742508	0.0	798.8458529762302	695.2797730246075	0.0	818.1701133023281	854.9853090474728	0.0	787.8450121047485	910.1241660121756	0.0	822.4293743263881	909.5527286388751	0.0	821.3748529971704	875.9633114871081	0.0	724.7206854132535	232.8535839042444	0.0	739.6732505199708	113.28423199915801	0.0	787.1266220697423	169.05620105998705	0.0	635.8116360519418	286.1636999294194	0.0	619.77184085692	424.3436668265966	0.0	618.9881179307581	547.4108272780471	0.0	810.2946757382167	274.92697475628313	0.0	851.0189730297463	392.3077401203378	0.0	896.5293508568608	496.38856892524683	0.0
64	2.1333333333333333	731.0638935472087	496.83800471458846	0.0	682.6296677223163	504.30651295645043	0.0	667.1180288926914	696.2723846570666	0.0	641.7934592946834	862.0900731299921	0.0	643.4936225423683	927.969766806724	0.0	614.1329402531932	922.9864726322604	0.0	645.9121878898858	883.1895667741078	0.0	782.038969534724	506.8977355260994	0.0	800.9513966558673	696.9053761254183	0.0	820.3337180552176	856.371603408945	0.0	789.2176736111506	911.6847096121501	0.0	823.6796013964927	911.6519874973611	0.0	823.6661910282456	876.9595333145162	0.0	727.2993707484488	233.53333717521792	0.0	742.1904509816657	114.62941725614243	0.0	789.8935083688798	169.91056066478754	0.0	638.6067199944955	286.0760335682406	0.0	621.8801929976975	424.50939141487595	0.0	621.1681307164287	547.3815194807544	0.0	812.4108612768018	275.5012793705003	0.0	853.7780638631931	393.5577915189432	0.0	899.300171188069	497.89148767655763	0.0
65	2.1666666666666665	733.4953292740711	496.6766758307142	0.0	685.1373620225223	504.15025040540735	0.0	668.9014813275458	696.0759511297643	0.0	643.4942157669028	862.7801121699363	0.0	645.8938182857678	928.8619331754376	0.0	616.4827984185973	923.6570814481333	0.0	648.2460752463026	884.6666728337524	0.0	784.2934707136016	506.80270354767146	0.0	802.5724643965134	697.3515591638655	0.0	822.9183111987758	855.1388427536212	0.0	790.8787586913259	912.2610580944119	0.0	825.5120262592409	912.23578608035	0.0	827.5266901069879	875.2840604275954	0.0	729.5823468021524	233.89076921961387	0.0	745.7711410902767	114.66044494886523	0.0	792.2716253495837	170.92973860115467	0.0	640.8135955041801	286.86916343501633	0.0	623.9737725534709	424.62919652958794	0.0	623.591758251611	547.2048288443688	0.0	813.7963854593106	275.94517031315684	0.0	856.7037351678838	393.63087596620767	0.0	903.6815916773647	498.65177180031696	0.0
66	2.2	736.2912631682669	495.1864602387937	0.0	688.3488124713314	502.566360491642	0.0	671.339756753696	694.2663550095638	0.0	645.0080699711972	861.9316736302951	0.0	648.6952233167464	928.7346120504437	0.0	618.9922161908539	923.0218234301492	0.0	650.1053603018233	884.8636535372025	0.0	786.536481815574	505.04254897964347	0.0	804.2286123550687	696.7010578767234	0.0	825.5968066108162	853.8120535461375	0.0	793.3952293546358	912.8035591732421	0.0	828.2201510892622	911.986436982972	0.0	831.4969864673851	873.5658962841918	0.0	731.8630123905106	233.77617652752522	0.0	749.6805467441129	114.48105377531706	0.0	794.5018005602799	172.21878987108178	0.0	642.6109671271056	287.66777021512763	0.0	625.934272173682	424.9601092712021	0.0	625.4126086064038	547.0106211005651	0.0	815.2777433738105	276.2447870934286	0.0	860.1977104165588	393.146164447594	0.0	910.8289551292787	496.9282014746866	0.0
67	2.2333333333333334	738.9175086804869	494.3242645351968	0.0	691.8269556882016	501.87629988637104	0.0	673.2859341188231	693.5961502109968	0.0	647.1672328202653	861.1714732590985	0.0	651.5789094526074	929.110475045487	0.0	621.3410097336116	923.0817372621291	0.0	653.1283628684795	883.8729211371078	0.0	788.59181848785	503.67427106106436	0.0	806.2407445883616	695.8938219533471	0.0	827.4216450289483	854.8492013355309	0.0	795.8642293719906	914.3238485182278	0.0	830.3848036485056	912.5876264821012	0.0	834.2998854302198	874.2234871700576	0.0	734.493563000983	233.53256366147897	0.0	753.0782782462245	115.03813658903667	0.0	797.2270879727588	173.8175142965547	0.0	644.7868106998367	287.21040415984675	0.0	627.7845582620849	424.93996400284914	0.0	626.9938263593862	546.506425329765	0.0	817.7837705512238	276.54476078156466	0.0	865.421967974542	392.79298889983	0.0	921.5024783446942	492.0359425432289	0.0
68	2.2666666666666666	740.7907243965349	494.40649977578164	0.0	694.785624345739	502.72528391503585	0.0	674.4292125752479	694.322595389447	0.0	649.9852364224291	861.9556723251306	0.0	655.104804224024	930.3333620143903	0.0	624.0096167702009	924.6377027445883	0.0	657.464504797026	883.9113079870757	0.0	790.4953374973776	503.47285995315116	0.0	808.1143119729986	695.7581906587327	0.0	828.2773182844888	857.1760617859663	0.0	797.4335082792887	915.8685584057725	0.0	831.0178417784365	914.0961292449857	0.0	836.1576056424991	876.4376621076849	0.0	737.0977948811703	234.14075320187214	0.0	755.8382884887243	116.12647985723535	0.0	799.6349829028038	176.14443217425008	0.0	647.413874643895	286.3337678685808	0.0	630.0485481656741	424.2781361722475	0.0	629.0781427063941	546.065301091713	0.0	821.007938659071	276.99244832319494	0.0	872.9968185543808	391.39230748211867	0.0	935.5434663475896	483.70020172671985	0.0
69	2.3	742.4300810537136	495.1584929349277	0.0	696.988202265069	504.6466032066083	0.0	675.9589228925456	695.7553928718443	0.0	653.198132903193	864.2017781051562	0.0	659.4731509330547	931.6480432905634	0.0	627.3458083599198	926.4941436080529	0.0	661.9479701457564	886.2233434076682	0.0	792.7844061697447	504.4411057861445	0.0	809.6773687336456	696.910584740034	0.0	829.2689635312169	858.24989561726	0.0	798.9236033194093	916.4088617456698	0.0	831.4952551424184	915.49144111748	0.0	837.546894817066	877.7851883960197	0.0	738.7530441615023	235.9846644107827	0.0	758.1842993624936	117.64156458994648	0.0	800.709366864527	179.362211783654	0.0	650.1805273238117	287.08782088029017	0.0	633.0027046784063	424.0729831467123	0.0	631.5130744897156	546.2996528714739	0.0	823.8211220609738	277.4625834186307	0.0	882.1009300435421	386.9730562720401	0.0	952.0237575661108	471.124523338979	0.0
